<svg xmlns="http://www.w3.org/2000/svg" width="32" height="32" viewBox="0 0 32 32"><path fill="#005a87" d="M16 0a16 16 0 1 1 0 32 16 16 0 0 1 0-32zM7.48 7.46a1.5 1.5 0 0 0-.47 1.11 1.62 1.62 0 0 0 1.64 1.62c.45 0 .83-.15 1.14-.46.32-.31.48-.69.48-1.13 0-.44-.16-.82-.48-1.13A1.6 1.6 0 0 0 8.63 7c-.44 0-.83.15-1.15.46zM7 23h3.27V10.99H7zm5.73 0h3.26v-4.36c0-1.28.05-2.12.16-2.5a3.05 3.05 0 0 1 3.06-2.37c.58 0 1.07.13 1.46.38.4.25.67.62.83 1.11.16.48.24 1.46.24 2.93V23H25v-7.56a4 4 0 0 0-1.35-3.22 5 5 0 0 0-3.5-1.28c-.72 0-1.19.11-1.87.34-.68.24-1.43.72-2.27 1.31v-1.6h-3.28z"/><path fill="#ebebeb" d="M16 0a16 16 0 1 1 0 32 16 16 0 0 1 0-32zM7.48 7.46a1.5 1.5 0 0 0-.47 1.11 1.62 1.62 0 0 0 1.64 1.62c.45 0 .83-.15 1.14-.46.32-.31.48-.69.48-1.13 0-.44-.16-.82-.48-1.13A1.6 1.6 0 0 0 8.63 7c-.44 0-.83.15-1.15.46zM7 23h3.27V10.99H7zm5.73 0h3.26v-4.36c0-1.28.05-2.12.16-2.5a3.05 3.05 0 0 1 3.06-2.37c.58 0 1.07.13 1.46.38.4.25.67.62.83 1.11.16.48.24 1.46.24 2.93V23H25v-7.56a4 4 0 0 0-1.35-3.22 5 5 0 0 0-3.5-1.28c-.72 0-1.19.11-1.87.34-.68.24-1.43.72-2.27 1.31v-1.6h-3.28z"/></svg>