<svg xmlns="http://www.w3.org/2000/svg" width="32" height="32" viewBox="0 0 32 32"><path fill="#4e9edc" d="M16 0a16 16 0 1 1 0 32 16 16 0 0 1 0-32zm7.78 10.84a4 4 0 0 0 1.62-2.23c-.71.46-1.5.8-2.35.98a3.54 3.54 0 0 0-2.7-1.28c-2.03 0-3.69 1.81-3.69 4.04 0 .32.04.62.1.92a10.24 10.24 0 0 1-7.61-4.22 4.33 4.33 0 0 0 1.14 5.39c-.6-.02-1.17-.2-1.67-.5v.05a3.96 3.96 0 0 0 2.96 3.96 3.48 3.48 0 0 1-1.67.07 3.75 3.75 0 0 0 3.45 2.8A6.98 6.98 0 0 1 7.9 22.5a9.86 9.86 0 0 0 5.67 1.81c6.79 0 10.5-6.15 10.5-11.49v-.52a7.82 7.82 0 0 0 1.84-2.1c-.67.33-1.38.54-2.12.64zm2.12-.64c.5-.81 0 0 0 0z"/><path fill="#ebebeb" d="M16 0a16 16 0 1 1 0 32 16 16 0 0 1 0-32zm7.78 10.84a4 4 0 0 0 1.62-2.23c-.71.46-1.5.8-2.35.98a3.54 3.54 0 0 0-2.7-1.28c-2.03 0-3.69 1.81-3.69 4.04 0 .32.04.62.1.92a10.24 10.24 0 0 1-7.61-4.22 4.33 4.33 0 0 0 1.14 5.39c-.6-.02-1.17-.2-1.67-.5v.05a3.96 3.96 0 0 0 2.96 3.96 3.48 3.48 0 0 1-1.67.07 3.75 3.75 0 0 0 3.45 2.8A6.98 6.98 0 0 1 7.9 22.5a9.86 9.86 0 0 0 5.67 1.81c6.79 0 10.5-6.15 10.5-11.49v-.52a7.82 7.82 0 0 0 1.84-2.1c-.67.33-1.38.54-2.12.64zm2.12-.64c.5-.81 0 0 0 0z"/></svg>